<mxfile host="app.diagrams.net" modified="2024-11-07T13:23:19.565Z" agent="Mozilla/5.0 (Windows NT 10.0; Win64; x64; rv:132.0) Gecko/20100101 Firefox/132.0" version="24.4.6" etag="oCebccmb36r0txQNBtO1" type="github">
  <diagram name="Page-1" id="k17ptQld6647DukCv2wZ">
    <mxGraphModel>
      <root>
        <mxCell id="0" />
        <mxCell id="1" parent="0" />
      </root>
    </mxGraphModel>
  </diagram>
</mxfile>
